# xmcd
#
# Track frame offsets: 
#        150
#        20975
#        52646
#        79263
#        110998
#        130364
#        153570
#        180583
#        208972
#        229389
#        253131
#        274690
#        292306
#        317256
#
# Disc length: 4523 seconds
#
# Revision: 5
# Processed by: cddbd v1.5.2PL0 Copyright (c) Steve Scherf et al.
# Submitted via: ExactAudioCopyFreeDBPlugin 1.0
#
DISCID=d811a90e
DTITLE=Shepherd, Kenny Wayne - Live! In Chicago
DYEAR=2010
DGENRE=Blues
TTITLE0=Somehow, Somewhere, Someway
TTITLE1=King's Highway
TTITLE2=True Lies
TTITLE3=Deja Voodoo
TTITLE4=Sell My Monkey
TTITLE5=Dance For Me Girl
TTITLE6=Baby, Don't Say That No More
TTITLE7=Eye To Eye
TTITLE8=How Many More Years
TTITLE9=Sick And Tired
TTITLE10=Feed Me
TTITLE11=Rocking Daddy
TTITLE12=Blue On Black
TTITLE13=I'm A King Bee
EXTD=YEAR: 2010
EXTT0=
EXTT1=
EXTT2=
EXTT3=
EXTT4=
EXTT5=
EXTT6=
EXTT7=
EXTT8=
EXTT9=
EXTT10=
EXTT11=
EXTT12=
EXTT13=
PLAYORDER=
